<svg height="320pt" preserveAspectRatio="xMidYMid meet" viewBox="0 0 320 320" width="320pt" xmlns="http://www.w3.org/2000/svg"><path d="m1275 3190c-3-5-1-10 5-10 7 0 8-6 1-18-6-11-6-24 0-35 7-12 6-17-3-17s-9-3 0-12c8-8 9-15 1-25-9-9-8-13 0-13s9-6 2-18c-6-11-6-24 0-35 7-12 6-17-3-17s-9-3 0-12c8-8 9-15 1-25-9-9-8-13 0-13s9-6 2-18c-6-11-6-24 0-35 7-12 6-17-2-17s-9-4 0-13c8-10 7-17-1-25-9-9-9-12 0-12s10-5 3-18c-6-11-6-24 0-35 7-12 6-17-2-17s-9-4 0-13c8-10 7-17-1-25-9-9-9-12 0-12s10-5 3-18c-6-11-6-24 0-35 7-12 6-17-2-17s-9-4 0-13c8-10 7-17-1-25-9-9-9-12 0-12s10-5 3-17c-6-11-6-24 0-35 7-12 6-18-2-18s-9-4 0-13c8-10 7-17-1-25-9-9-9-12 0-12s10-5 3-18c-6-11-6-24 0-35 7-12 6-17-2-17s-9-4 0-13c8-10 7-17-1-25-9-9-9-12 0-12s10-5 3-18c-6-11-6-24 0-35 7-12 6-17-2-17s-9-4 0-13c8-10 7-17-1-25-9-9-9-12 0-12s10-5 3-18c-6-11-6-24 0-35 7-12 6-17-2-17s-9-4 0-13c8-10 7-17-1-25-9-9-9-12 0-12s10-6 4-17c-9-21-9-90 1-100 4-3 2-12-4-20-9-9-8-13 0-13s8-5-1-19c-11-18-31-22-44-8-4 4-13 2-20-4-8-7-14-7-19 1s-10 8-20 0-15-8-20 0-10 8-20 0-15-8-20 0-10 8-20 0-15-8-20 0-10 8-20 0-15-8-20 0-10 8-20 0-15-8-20 0-10 8-20 0-15-8-20 0-10 8-20 0-15-8-20 0-10 8-20 0-15-8-20 0-10 8-20 0-15-8-20 0-10 8-20 0-15-8-20 0-10 8-20 0-15-8-20 0-10 8-20 0-15-8-20 0-10 8-20 0-15-8-20 0-10 8-20 0-15-8-20 0-10 8-20 0-15-8-20 0-10 8-20 0-15-8-20 0-10 8-20 0-15-8-20 0-10 8-20 0-15-8-20 0-10 8-20 0-15-8-20 0-10 8-20 0-15-8-20 0-10 8-20 0-15-8-20 0-10 8-20 0-15-8-20 0-10 8-20 0-15-8-20 0-10 8-20 0-15-8-20 0-10 8-20 0-15-8-20 0-10 8-20 0-15-8-20 0-10 8-20 0-15-8-20 0-10 8-20 0-15-8-20 0-10 8-20 0-15-8-20 0-11 8-21-1c-11-9-14-67-14-324 0-274 2-314 16-319 10-4 13-2 8 7-5 8-2 7 9-2 13-10 17-10 17-1 0 10 3 10 15 0 8-7 15-9 15-4s15 9 34 9 32-4 29-8c-3-5 3-4 14 2 14 7 23 7 31-1 9-9 12-9 12 1 0 11 3 11 15 1s15-10 15 1c0 12 2 12 9 0 5-7 11-9 14-4 7 11 37 11 55-1 6-4 12-4 12 1 0 4 15 8 34 8s32-4 29-8c-3-5 3-4 14 2 14 7 23 7 31-1 9-9 12-9 12 1 0 11 3 11 15 1s15-10 15 1c0 12 2 12 9 0 5-7 11-9 14-4 7 11 37 11 55-1 6-4 12-3 12 2 0 10 42 8 59-3 6-3 11-1 11 6 0 9 3 9 14 0s15-9 19 1 6 10 6-1c1-11 4-11 16-1s15 10 15 0c0-9 3-10 13-1 10 8 17 7 25-1 9-9 12-9 12 1 0 11 3 11 15 1s15-10 15 1c0 12 2 12 9 0 6-9 11-10 15-2 9 15 28 3 20-12-3-7 1-4 9 5 10 13 16 15 25 6s12-9 12 1 3 11 14 2 15-9 19 1 6 10 6-1c1-11 4-11 16-1s15 10 15-1c0-10 3-10 12-1 8 8 15 9 25 1 10-9 13-8 13 1 0 10 3 10 15 0s15-10 15 1c0 12 2 12 9 0 6-9 11-10 15-2 9 15 28 3 20-12-3-7 1-4 9 5 10 13 16 15 25 6s12-9 12 1 3 11 14 2 15-9 19 1 6 10 6-1c1-11 4-11 16-1s15 10 15 0 3-10 14-1 16 9 21 0c6-8 10-7 16 2 7 12 9 12 9 0 0-11 3-11 17 0 9 8 14 9 10 2-4-6-2-13 5-15 14-5 20-38 6-38-7 0-7-5 1-13 8-10 7-17-1-25-9-9-9-12 0-12s10-5 3-18c-6-11-6-24 0-35 7-12 6-17-2-17s-9-4 0-13c8-10 7-17-1-25-9-9-9-12 0-12s10-5 3-18c-6-11-6-24 0-35 7-12 6-17-2-17s-9-4 0-13c8-10 7-17-1-25-9-9-9-12 0-12s10-5 3-18c-6-11-6-24 0-35 7-12 6-17-2-17s-9-4 0-13c8-10 7-17-1-25-9-9-9-12 0-12s10-5 3-18c-6-11-6-24 0-35 7-12 6-17-1-17-6 0-8-5-4-12 12-19 12-48 1-48-6 0-6-5 0-12 10-14 10-55 0-65-4-3-2-14 4-24 7-14 6-19-3-19-10 0-10-2-1-8 8-5 9-13 3-22-5-8-5-21 1-32 7-13 6-18-3-18-10 0-10-2-1-8 8-5 9-13 3-22-5-8-5-21 1-32 7-13 6-18-3-18-10 0-10-2-1-8 8-5 9-13 3-22-5-8-5-21 1-32 7-13 6-18-3-18-10 0-10-2-1-8 8-5 9-13 3-22-5-8-5-21 1-32 7-13 6-18-3-18-10 0-10-2-1-8 8-5 9-13 3-22-5-8-5-21 1-32 7-13 6-18-3-18-10 0-10-2-1-8 8-5 9-13 3-22-5-8-5-21 1-32 7-13 6-18-3-18-8 0-9-3-3-8 14-10 17-32 4-32-8 0-8-5 1-15 9-11 9-15 1-15-7 0-9-5-6-10 4-6 126-10 332-10 288 0 324 2 313 15-9 11-9 15-1 15s9 6 2 18c-6 11-6 24 0 35 7 12 6 17-2 17s-8 4 1 15c10 12 10 15 0 15s-10 3 0 15 10 15 0 15-10 3 0 15 10 15 0 15-10 3 0 15 10 15 0 15-10 3 0 15 10 15 0 15-10 3 0 15 10 15 0 15-10 3 0 15 10 15 0 15-10 3 0 15 10 15 0 15-10 3 0 15 10 15 0 15-10 3 0 15 10 15 0 15-10 3 0 15 10 15 0 15-10 3 0 15 10 15 0 15-10 3 0 15 10 15 0 15-10 3 0 15 10 15 0 15-10 3 0 15 10 15 0 15-10 3 0 15 10 15 0 15-10 3 0 15c8 9 8 15 2 15-7 0-8 10-2 30s5 30-2 30c-6 0-6 6 2 15 10 12 10 15 0 15s-10 3 0 15 10 15 0 15-10 3 0 15 10 15 0 15-10 3 0 15 10 15 0 15-10 3 0 15 10 15 0 15-10 3 0 15 10 15 0 15-10 3 0 15 10 15 0 15-10 3 0 15 10 15 0 15-10 3 0 15 10 15 0 15-10 3 0 15 10 15 0 15-10 3 0 15 10 15 0 15-10 3 0 15 10 15 0 15-10 3 0 15 10 15 0 15-10 3 0 15 10 15 0 15-10 3 0 15 10 15 0 15-10 3 0 15 10 15 0 15-10 3 0 15 10 15 0 15-10 3 0 15 10 15 0 15-10 3 0 15 10 15 0 15c-9 0-9 4-2 13 10 11 12 18 12 33 0 4 7 1 15-6 12-10 15-10 15 1 0 12 2 12 9 0 5-7 11-9 14-4 7 11 36 11 54 0 6-4 14-1 16 5 4 10 6 9 6-1 1-11 4-11 16-1 11 9 15 9 15 1 0-7 5-9 12-5 18 12 48 12 55 1 3-5 9-3 14 4 7 12 9 12 9 0 0-11 3-11 15-1 11 9 15 9 15 1 0-7 5-9 12-5 24 15 49 12 43-5-4-11-1-10 15 4 13 12 20 14 20 5 0-10 3-10 15 0 11 9 15 9 15 1 0-7 5-9 12-5 18 12 48 12 55 1 3-5 9-3 14 4 7 12 9 12 9 0 0-11 3-11 15-1 11 9 15 9 15 1 0-7 5-9 12-5 24 15 49 12 43-5-4-11-1-10 15 4 13 12 20 14 20 5 0-10 3-10 15 0 11 9 15 9 15 1 0-7 5-9 12-5 18 12 48 12 55 1 3-5 9-3 14 4 7 12 9 12 9 0 0-11 3-11 15-1 11 9 15 9 15 1 0-7 5-9 12-5 24 15 49 12 43-5-4-11-1-10 15 4 13 12 20 14 20 5 0-10 3-10 15 0 11 9 15 9 15 1 0-7 5-9 12-5 18 12 48 12 55 1 3-5 9-3 14 4 7 12 9 12 9 0 0-11 3-11 15-1 11 9 15 9 15 1 0-7 5-9 12-5 24 15 49 12 43-5-4-11-1-10 15 4 13 12 20 14 20 5 0-10 3-10 15 0 11 9 15 9 15 1 0-7 5-9 12-5 18 12 48 12 55 1 3-5 9-3 14 4 7 11 9 11 9 1 0-9 5-10 18-3s23 6 30-1c9-9 12 68 12 316 0 270-2 327-13 323-8-3-20-1-28 3-7 5-18 5-25-1-8-7-14-6-19 1-4 7-12 7-26 0-14-8-19-7-19 2 0 8-3 9-8 3-8-12-32-13-49-2-6 4-15 3-18-3-5-8-11-7-21 1-8 6-14 7-14 2s-7-10-15-10-15 5-15 10-6 4-14-2c-10-9-16-9-21-1s-11 8-19 1c-9-7-16-7-24 1-7 7-12 8-12 2s-7-11-15-11-15 5-15 10-6 4-14-2c-10-9-16-9-21-1s-11 8-19 1c-9-7-16-7-24 1-7 7-12 8-12 2s-7-11-15-11-15 5-15 10-6 4-14-2c-10-9-16-9-21-1s-11 8-19 1c-9-7-16-7-24 1-7 7-12 8-12 2s-7-11-15-11-15 5-15 11-5 5-12-2c-8-8-15-8-24-1-8 7-14 7-19-1s-11-8-21 1c-8 6-14 7-14 2s-7-10-15-10-15 5-15 10-6 4-14-2c-10-9-16-9-21-1s-11 8-19 1c-9-7-16-7-24 1-7 7-12 8-12 2s-7-11-15-11-15 5-15 10-6 4-14-2c-10-9-16-9-21-1s-11 8-19 1c-9-7-16-7-24 1-7 7-12 8-12 2s-7-11-15-11-15 5-15 10-6 4-14-2c-10-9-16-9-21-1s-11 8-19 1c-9-7-16-7-24 1-7 7-12 8-12 2s-7-11-15-11-15 5-15 10-6 4-14-2c-10-9-16-9-21-1s-11 8-19 1c-9-7-16-7-24 1-7 7-12 8-12 2s-7-11-15-11-15 4-15 9c0 4-5 8-11 8-5 0-7-5-4-10 10-16-18-7-32 10-7 10-8 21-2 32 7 12 6 18-2 18s-8 4 1 15c10 12 10 15 0 15s-10 3 0 15 10 15 0 15-10 3 0 15 10 15 0 15-10 3 0 15 10 15 0 15-10 3 0 15 10 15 0 15-10 3 0 15 10 15 0 15-10 3 0 15 10 15 0 15-10 3 0 15 10 15 0 15-10 3 0 15 10 15 0 15-10 3 0 15 10 15 0 15-10 3 0 15 10 15 0 15-10 3 0 15 10 15 0 15-10 3 0 15 10 15 0 15-10 3 0 15 10 15 0 15-10 3 0 15 10 15 0 15-10 3 0 15 10 15 0 15-10 3 0 15 10 15 0 15-10 3 0 15c9 11 9 15 1 15s-9 6-3 18c10 21 9 593-2 610-4 7-2 12 5 12 8 0 9 3 0 13-6 8-8 17-4 20 3 4-138 7-315 7-203 0-323-4-327-10z" transform="matrix(.1 0 0 -.1 0 320)"/></svg>